<svg xmlns="http://www.w3.org/2000/svg" viewBox="0 0 16 16" fill="none" shape-rendering="crispEdges"><metadata xmlns:rdf="http://www.w3.org/1999/02/22-rdf-syntax-ns#" xmlns:xsi="http://www.w3.org/2001/XMLSchema-instance" xmlns:dc="http://purl.org/dc/elements/1.1/" xmlns:dcterms="http://purl.org/dc/terms/"><rdf:RDF><rdf:Description><dc:title>Pixel Art</dc:title><dc:creator>DiceBear</dc:creator><dc:source xsi:type="dcterms:URI">https://www.figma.com/community/file/1198754108850888330</dc:source><dcterms:license xsi:type="dcterms:URI">https://creativecommons.org/publicdomain/zero/1.0/</dcterms:license><dc:rights>„Pixel Art” (https://www.figma.com/community/file/1198754108850888330) by „DiceBear”, licensed under „CC0 1.0” (https://creativecommons.org/publicdomain/zero/1.0/)</dc:rights></rdf:Description></rdf:RDF></metadata><mask id="viewboxMask"><rect width="16" height="16" rx="0" ry="0" x="0" y="0" fill="#fff" /></mask><g mask="url(#viewboxMask)"><path d="M4 2h8v1h1v3h1v2h-1v3h-1v1H9v1h4v1h1v2H2v-2h1v-1h4v-1H4v-1H3V8H2V6h1V3h1V2Z" fill="#a26d3d"/><path d="M4 2h8v1h1v3h1v2h-1v3h-1v1H4v-1H3V8H2V6h1V3h1V2Z" fill="#fff" fill-opacity=".1"/><path d="M7 12h2v1h4v1h1v2H2v-2h1v-1h4v-1Z" fill="#ff6f69"/><path fill="#000" fill-opacity=".3" d="M7 12h2v1H7z"/><g fill-rule="evenodd" clip-rule="evenodd"><path d="M5 6h1v2H4V7h1V6Zm5 0h1v2H9V7h1V6ZM5 6h1v2H4V7h1V6Zm5 0h1v2H9V7h1V6Z" fill="#fff"/><path d="M6 6v1H5v1h2V6H6Zm5 0v1h-1v1h2V6h-1Z" fill="#697b94"/><path d="M6 6v1h1V6H6ZM5 7v1h1V7H5Zm6-1v1h1V6h-1Zm-1 1v1h1V7h-1Z" fill="#fff" fill-opacity=".5"/></g><path d="M7 9v2h2v-1H8V9H7Z" fill="#e35d6a"/><path d="M9 11v-1H8V9H7v1h1v1h1Z" fill="#fff" fill-opacity=".2"/><path d="M2 1h12v1h1v11h-1v-1h-1V8h1V6h-1V3h-1v1h-1V3H8v1H7v1H6v1H5v1H4v1H3v4H2v1H1V2h1V1Z" fill="#612616"/></g></svg>
